Coordinates
version=1
nRows=8
nColumns=40
inDegrees=yes

Units are S.I. units (second, meters, Newtons, ...)
If the header above contains a line with 'inDegrees', this indicates whether rotational values are in degrees (yes) or radians (no).

endheader
time	pelvis_tilt	pelvis_list	pelvis_rotation	pelvis_tx	pelvis_ty	pelvis_tz	hip_flexion_r	hip_adduction_r	hip_rotation_r	knee_angle_r	knee_angle_r_beta	ankle_angle_r	subtalar_angle_r	mtp_angle_r	hip_flexion_l	hip_adduction_l	hip_rotation_l	knee_angle_l	knee_angle_l_beta	ankle_angle_l	subtalar_angle_l	mtp_angle_l	lumbar_extension	lumbar_bending	lumbar_rotation	arm_flex_r	arm_add_r	arm_rot_r	elbow_flex_r	pro_sup_r	wrist_flex_r	wrist_dev_r	arm_flex_l	arm_add_l	arm_rot_l	elbow_flex_l	pro_sup_l	wrist_flex_l	wrist_dev_l
      0.24000000	     28.56196869	    -10.50012232	      5.53245593	      0.24948542	      0.93104335	     -0.21867648	    -17.12224071	     12.97084324	     -6.94023032	     10.87677151	      0.18983547	      4.02156243	      0.00000000	      0.00000000	    -29.65588127	    -17.29378990	     -8.19108676	     54.47279655	      0.95072965	     -7.75464775	      0.00000000	      0.00000000	    -42.91507553	     11.72161804	      1.35517078	     -0.67227922	     -2.52373254	     -6.15918032	     20.90984553	     88.81204417	    -11.65085668	      6.53949549	      2.07533137	     -4.45210399	      2.27016441	     28.05410640	     89.26479825	    -19.81588735	     -7.13133022
      0.25000000	     29.50620147	    -10.25996681	      5.38610606	      0.25805291	      0.93348474	     -0.21667107	    -19.05620629	     12.91590467	     -6.51078574	     10.32582568	      0.18021966	      4.12272910	      0.00000000	      0.00000000	    -29.54266938	    -17.22592449	     -7.70321271	     56.35995549	      0.98366679	     -8.54774698	      0.00000000	      0.00000000	    -43.85635302	     11.18149439	      1.95516374	     -0.40741915	     -2.64188948	     -5.81846939	     21.60912208	     88.79463585	    -11.60639688	      6.23106423	      1.90832649	     -4.32080865	      2.75718233	     26.91397560	     89.25343286	    -19.82690136	     -6.83089445
      0.26000000	     30.34032370	    -10.03909222	      5.13135648	      0.26637800	      0.93569148	     -0.21469591	    -20.81258009	     12.80569985	     -5.96904996	      9.89954158	      0.17277959	      4.39067376	      0.00000000	      0.00000000	    -29.32608298	    -17.09940702	     -7.35915006	     58.11530624	      1.01430344	     -8.54518111	      0.00000000	      0.00000000	    -44.75454834	     10.60420576	      2.48373517	     -0.05099663	     -2.80516048	     -5.38703284	     22.36597321	     88.81522689	    -11.53736790	      5.98774975	      1.65872787	     -4.14219856	      2.83958263	     25.88481773	     89.25396056	    -19.79803088	     -6.54198638
      0.27000000	     31.10190840	     -9.69812706	      4.90801889	      0.27452679	      0.93786205	     -0.21272214	    -22.49932758	     12.57397226	     -5.62241390	      9.40439202	      0.16413760	      4.41882942	      0.00000000	      0.00000000	    -28.96788391	    -16.85907771	     -6.94582497	     59.67861916	      1.04158840	     -8.21380875	      0.00000000	      0.00000000	    -45.55324137	      9.94991391	      3.23612925	      0.15336024	     -2.93419378	     -5.32561429	     23.18433249	     88.78733593	    -11.95712265	      5.39707131	      1.77007129	     -4.05454186	      3.99998343	     24.40724366	     89.22967102	    -19.88998624	     -6.19492598
      0.28000000	     31.57416469	     -9.40516496	      4.60781286	      0.28236649	      0.93961126	     -0.21081445	    -23.78296155	     12.32759974	     -5.16020098	      9.06584609	      0.15822886	      4.64587008	      0.00000000	      0.00000000	    -28.24022270	    -16.59639569	     -6.54783585	     61.15695880	      1.06739029	     -7.36527166	      0.00000000	      0.00000000	    -46.16021909	      9.28987072	      3.66241578	      0.63275479	     -3.13524541	     -4.86721372	     23.90813707	     88.81557551	    -11.90454040	      5.21012652	      1.60519429	     -3.89054697	      4.04599764	     23.33083148	     89.23881121	    -19.86784797	     -5.87752428
      0.29000000	     31.87948023	     -9.05210764	      4.33184892	      0.29019538	      0.94114083	     -0.20896093	    -24.88121662	     12.02078420	     -4.88692917	      8.70676258	      0.15196167	      4.83927157	      0.00000000	      0.00000000	    -27.30565617	    -16.27931196	     -6.14854211	     62.42024719	      1.08943883	     -6.03633405	      0.00000000	      0.00000000	    -46.54941996	      8.62239516	      4.29687788	      0.98521694	     -3.31791467	     -4.64463333	     24.62328101	     88.79498496	    -12.45838163	      4.78055187	      1.76869560	     -3.78730671	      5.23912400	     21.78157774	     89.19912115	    -20.02918388	     -5.60823701
      0.30000000	     32.05326468	     -8.69896469	      4.02228484	      0.29789815	      0.94250687	     -0.20717594	    -25.80893603	     11.68388773	     -4.53781184	      8.38082489	      0.14627299	      5.04527226	      0.00000000	      0.00000000	    -26.21872100	    -15.93335338	     -5.82070128	     63.44683877	      1.10735624	     -4.62660908	      0.00000000	      0.00000000	    -46.86617437	      7.92808678	      4.62762025	      1.52051610	     -3.53593564	     -4.22195422	     25.30937685	     88.82100959	    -12.46027073	      4.62831742	      1.65347358	     -3.63492159	      5.30159879	     20.67477457	     89.20197638	    -20.00140016	     -5.27410428
      0.31000000	     32.12476386	     -8.32756689	      3.69225514	      0.30566741	      0.94369215	     -0.20535248	    -26.62012218	     11.31726588	     -4.27373420	      8.06362455	      0.14073680	      5.30516099	      0.00000000	      0.00000000	    -25.05410581	    -15.57450062	     -5.61267106	     64.19314153	      1.12038168	     -2.97111867	      0.00000000	      0.00000000	    -47.03892954	      7.20494547	      4.97017657	      2.06902464	     -3.74420447	     -3.83545918	     25.91049352	     88.83517501	    -12.61269800	      4.48784326	      1.58092692	     -3.51805273	      5.60389688	     19.49378232	     89.19177638	    -19.94758959	     -4.90061559
